<?xml version="1.0" encoding="iso-8859-1"?>
<!-- Generator: Adobe Illustrator 17.1.0, SVG Export Plug-In . SVG Version: 6.00 Build 0)  -->
<!DOCTYPE svg PUBLIC "-//W3C//DTD SVG 1.1//EN" "http://www.w3.org/Graphics/SVG/1.1/DTD/svg11.dtd">
<svg version="1.1" id="Capa_1" xmlns="http://www.w3.org/2000/svg" xmlns:xlink="http://www.w3.org/1999/xlink" x="0px" y="0px"
	 viewBox="0 0 442 442" style="enable-background:new 0 0 442 442;" xml:space="preserve">
<path d="M392,65H220.973c-9.131-12.136-23.65-20-39.973-20H50C22.43,45,0,67.43,0,95v282c0,11.028,8.972,20,20,20h402
	c11.028,0,20-8.972,20-20V165v-50C442,87.43,419.57,65,392,65z M392,85c16.542,0,30,13.458,30,30v10.027
	C413.637,118.735,403.247,115,392,115H231V95c0-3.424-0.347-6.768-1.006-10H392z M20,377V95c0-16.542,13.458-30,30-30h131
	c10.852,0,20.377,5.792,25.646,14.448c0.201,0.404,0.42,0.797,0.672,1.167C209.663,84.889,211,89.791,211,95v30
	c0,5.523,4.477,10,10,10h171c16.542,0,30,13.458,30,30l0.002,212H20z"/>
<g>
</g>
<g>
</g>
<g>
</g>
<g>
</g>
<g>
</g>
<g>
</g>
<g>
</g>
<g>
</g>
<g>
</g>
<g>
</g>
<g>
</g>
<g>
</g>
<g>
</g>
<g>
</g>
<g>
</g>
</svg>
